<mxfile host="app.diagrams.net" modified="2023-09-26T16:04:57.562Z" agent="Mozilla/5.0 (Windows NT 10.0; Win64; x64) AppleWebKit/537.36 (KHTML, like Gecko) Chrome/117.0.0.0 Safari/537.36 Edg/117.0.2045.43" etag="jMIC4fNuQ8wxQQWi1722" version="21.8.2" type="github">
  <diagram name="Page-1" id="97916047-d0de-89f5-080d-49f4d83e522f">
    <mxGraphModel dx="1453" dy="802" grid="1" gridSize="10" guides="1" tooltips="1" connect="1" arrows="1" fold="1" page="1" pageScale="1.5" pageWidth="1169" pageHeight="827" background="none" math="0" shadow="0">
      <root>
        <mxCell id="0" />
        <mxCell id="1" parent="0" />
        <mxCell id="2" value="ALUGAR UMA CASA" style="rounded=1;fillColor=#10739E;strokeColor=none;shadow=1;gradientColor=none;fontStyle=1;fontColor=#FFFFFF;fontSize=14;" parent="1" vertex="1">
          <mxGeometry x="480" y="40" width="200" height="60" as="geometry" />
        </mxCell>
        <mxCell id="4" value="SOZINHO" style="rounded=1;fillColor=#10739E;strokeColor=none;shadow=1;gradientColor=none;fontStyle=1;fontColor=#FFFFFF;fontSize=14;" parent="1" vertex="1">
          <mxGeometry x="770" y="70" width="200" height="60" as="geometry" />
        </mxCell>
        <mxCell id="6" value="2 OU MAIS PESSOAS" style="rounded=1;fillColor=#10739E;strokeColor=none;shadow=1;gradientColor=none;fontStyle=1;fontColor=#FFFFFF;fontSize=14;" parent="1" vertex="1">
          <mxGeometry x="770" y="160" width="200" height="60" as="geometry" />
        </mxCell>
        <mxCell id="32" value="" style="edgeStyle=elbowEdgeStyle;elbow=vertical;strokeWidth=4;endArrow=block;endFill=1;fontStyle=1;strokeColor=#23445D;entryX=0;entryY=0.5;entryDx=0;entryDy=0;exitX=1;exitY=0.5;exitDx=0;exitDy=0;" parent="1" source="DQbE9HWh_oQt2wXnp7ka-55" target="6" edge="1">
          <mxGeometry x="22" y="165.5" width="100" height="100" as="geometry">
            <mxPoint x="772" y="260" as="sourcePoint" />
            <mxPoint x="982" y="250" as="targetPoint" />
            <Array as="points">
              <mxPoint x="720" y="200" />
            </Array>
          </mxGeometry>
        </mxCell>
        <mxCell id="55" value="" style="edgeStyle=elbowEdgeStyle;elbow=vertical;strokeWidth=4;endArrow=block;endFill=1;fontStyle=1;strokeColor=#23445D;exitX=0.5;exitY=1;exitDx=0;exitDy=0;entryX=0;entryY=0.5;entryDx=0;entryDy=0;" parent="1" source="2" target="DQbE9HWh_oQt2wXnp7ka-55" edge="1">
          <mxGeometry x="22" y="165.5" width="100" height="100" as="geometry">
            <mxPoint x="772" y="405.5" as="sourcePoint" />
            <mxPoint x="942" y="615.5" as="targetPoint" />
            <Array as="points">
              <mxPoint x="560" y="130" />
            </Array>
          </mxGeometry>
        </mxCell>
        <mxCell id="DQbE9HWh_oQt2wXnp7ka-55" value="PROCURAR IMOBILIARIA" style="rounded=1;fillColor=#10739E;strokeColor=none;shadow=1;gradientColor=none;fontStyle=1;fontColor=#FFFFFF;fontSize=14;" vertex="1" parent="1">
          <mxGeometry x="490" y="160" width="200" height="60" as="geometry" />
        </mxCell>
        <mxCell id="DQbE9HWh_oQt2wXnp7ka-58" value="" style="edgeStyle=elbowEdgeStyle;elbow=vertical;strokeWidth=4;endArrow=block;endFill=1;fontStyle=1;strokeColor=#23445D;entryX=0;entryY=0.5;entryDx=0;entryDy=0;exitX=0.5;exitY=0;exitDx=0;exitDy=0;" edge="1" parent="1" source="DQbE9HWh_oQt2wXnp7ka-55" target="4">
          <mxGeometry x="22" y="165.5" width="100" height="100" as="geometry">
            <mxPoint x="780" y="310" as="sourcePoint" />
            <mxPoint x="1070" y="370" as="targetPoint" />
            <Array as="points">
              <mxPoint x="720" y="130" />
            </Array>
          </mxGeometry>
        </mxCell>
        <mxCell id="DQbE9HWh_oQt2wXnp7ka-73" style="edgeStyle=orthogonalEdgeStyle;rounded=0;orthogonalLoop=1;jettySize=auto;html=1;entryX=0.5;entryY=0;entryDx=0;entryDy=0;" edge="1" parent="1" source="DQbE9HWh_oQt2wXnp7ka-59" target="DQbE9HWh_oQt2wXnp7ka-65">
          <mxGeometry relative="1" as="geometry">
            <mxPoint x="1400" y="119.99999999999989" as="targetPoint" />
          </mxGeometry>
        </mxCell>
        <mxCell id="DQbE9HWh_oQt2wXnp7ka-59" value="UM COMODO" style="rounded=1;fillColor=#10739E;strokeColor=none;shadow=1;gradientColor=none;fontStyle=1;fontColor=#FFFFFF;fontSize=14;" vertex="1" parent="1">
          <mxGeometry x="1030" y="70" width="200" height="60" as="geometry" />
        </mxCell>
        <mxCell id="DQbE9HWh_oQt2wXnp7ka-67" style="edgeStyle=orthogonalEdgeStyle;rounded=0;orthogonalLoop=1;jettySize=auto;html=1;entryX=0;entryY=0.5;entryDx=0;entryDy=0;" edge="1" parent="1" source="DQbE9HWh_oQt2wXnp7ka-61" target="DQbE9HWh_oQt2wXnp7ka-65">
          <mxGeometry relative="1" as="geometry" />
        </mxCell>
        <mxCell id="DQbE9HWh_oQt2wXnp7ka-61" value="PROCURAR CASA COM&#xa;MAIS DE UM COMODO" style="rounded=1;fillColor=#10739E;strokeColor=none;shadow=1;gradientColor=none;fontStyle=1;fontColor=#FFFFFF;fontSize=14;" vertex="1" parent="1">
          <mxGeometry x="1030" y="160" width="200" height="60" as="geometry" />
        </mxCell>
        <mxCell id="DQbE9HWh_oQt2wXnp7ka-63" value="" style="edgeStyle=elbowEdgeStyle;elbow=vertical;strokeWidth=4;endArrow=block;endFill=1;fontStyle=1;strokeColor=#23445D;exitX=1;exitY=0.5;exitDx=0;exitDy=0;" edge="1" parent="1" source="4" target="DQbE9HWh_oQt2wXnp7ka-59">
          <mxGeometry x="22" y="165.5" width="100" height="100" as="geometry">
            <mxPoint x="1210" y="330" as="sourcePoint" />
            <mxPoint x="1430" y="200" as="targetPoint" />
            <Array as="points">
              <mxPoint x="1080" y="100" />
            </Array>
          </mxGeometry>
        </mxCell>
        <mxCell id="DQbE9HWh_oQt2wXnp7ka-64" value="" style="edgeStyle=elbowEdgeStyle;elbow=vertical;strokeWidth=4;endArrow=block;endFill=1;fontStyle=1;strokeColor=#23445D;exitX=1;exitY=0.5;exitDx=0;exitDy=0;entryX=0;entryY=0.5;entryDx=0;entryDy=0;" edge="1" parent="1" source="6" target="DQbE9HWh_oQt2wXnp7ka-61">
          <mxGeometry x="22" y="165.5" width="100" height="100" as="geometry">
            <mxPoint x="1200" y="180" as="sourcePoint" />
            <mxPoint x="1220" y="260" as="targetPoint" />
            <Array as="points">
              <mxPoint x="1100" y="230" />
            </Array>
          </mxGeometry>
        </mxCell>
        <mxCell id="DQbE9HWh_oQt2wXnp7ka-71" style="edgeStyle=orthogonalEdgeStyle;rounded=0;orthogonalLoop=1;jettySize=auto;html=1;entryX=0.5;entryY=0;entryDx=0;entryDy=0;" edge="1" parent="1" source="DQbE9HWh_oQt2wXnp7ka-65" target="DQbE9HWh_oQt2wXnp7ka-66">
          <mxGeometry relative="1" as="geometry" />
        </mxCell>
        <mxCell id="DQbE9HWh_oQt2wXnp7ka-65" value="SEPARA A&#xa;DOCUMENTAÇÃO" style="rounded=1;fillColor=#10739E;strokeColor=none;shadow=1;gradientColor=none;fontStyle=1;fontColor=#FFFFFF;fontSize=14;" vertex="1" parent="1">
          <mxGeometry x="1310" y="160" width="200" height="60" as="geometry" />
        </mxCell>
        <mxCell id="DQbE9HWh_oQt2wXnp7ka-74" style="edgeStyle=orthogonalEdgeStyle;rounded=0;orthogonalLoop=1;jettySize=auto;html=1;" edge="1" parent="1" source="DQbE9HWh_oQt2wXnp7ka-66" target="DQbE9HWh_oQt2wXnp7ka-72">
          <mxGeometry relative="1" as="geometry" />
        </mxCell>
        <mxCell id="DQbE9HWh_oQt2wXnp7ka-66" value="PROCURAR CASA COM&#xa;MAIS DE UM COMODO" style="rounded=1;fillColor=#10739E;strokeColor=none;shadow=1;gradientColor=none;fontStyle=1;fontColor=#FFFFFF;fontSize=14;" vertex="1" parent="1">
          <mxGeometry x="1310" y="290" width="200" height="60" as="geometry" />
        </mxCell>
        <mxCell id="DQbE9HWh_oQt2wXnp7ka-76" style="edgeStyle=orthogonalEdgeStyle;rounded=0;orthogonalLoop=1;jettySize=auto;html=1;entryX=1;entryY=0.5;entryDx=0;entryDy=0;" edge="1" parent="1" source="DQbE9HWh_oQt2wXnp7ka-72" target="DQbE9HWh_oQt2wXnp7ka-75">
          <mxGeometry relative="1" as="geometry" />
        </mxCell>
        <mxCell id="DQbE9HWh_oQt2wXnp7ka-72" value="COLHER ASSINATURAS&#xa;" style="rounded=1;fillColor=#10739E;strokeColor=none;shadow=1;gradientColor=none;fontStyle=1;fontColor=#FFFFFF;fontSize=14;" vertex="1" parent="1">
          <mxGeometry x="1310" y="410" width="200" height="70" as="geometry" />
        </mxCell>
        <mxCell id="DQbE9HWh_oQt2wXnp7ka-75" value="REGISTRAR NO CARTÓRIO&#xa;E NA PREFEITURA" style="rounded=1;fillColor=#10739E;strokeColor=none;shadow=1;gradientColor=none;fontStyle=1;fontColor=#FFFFFF;fontSize=14;" vertex="1" parent="1">
          <mxGeometry x="1020" y="410" width="200" height="70" as="geometry" />
        </mxCell>
        <mxCell id="DQbE9HWh_oQt2wXnp7ka-77" value="AVALIAR OS PREÇOS&#xa; E LOCAÇÕES" style="rounded=1;fillColor=#10739E;strokeColor=none;shadow=1;gradientColor=none;fontStyle=1;fontColor=#FFFFFF;fontSize=14;" vertex="1" parent="1">
          <mxGeometry x="1300" y="70" width="200" height="60" as="geometry" />
        </mxCell>
      </root>
    </mxGraphModel>
  </diagram>
</mxfile>
